<svg xmlns="http://www.w3.org/2000/svg" xmlns:xlink="http://www.w3.org/1999/xlink" width="375" zoomAndPan="magnify" viewBox="0 0 375 374.999991" height="374.999991" preserveAspectRatio="xMidYMid meet" version="1.0"><defs><g><g id="id1"/><g id="id2"/><g id="id3"/><g id="id4"/><g id="id5"/><g id="id6"/><g id="id7"/><g id="id8"/></g></defs><g fill="rgb(100%, 8.628845%, 8.628845%)" fill-opacity="1"><g transform="translate(107.0287, 203.916071)"><g><path d="M -2.25 -42.921875 L 4.4375 -43.65625 L 9.125 -1 L 2.4375 -0.265625 Z M -2.25 -42.921875 "/></g></g></g><g fill="rgb(100%, 8.628845%, 8.628845%)" fill-opacity="1"><g transform="translate(118.241991, 202.602254)"><g><path d="M 10.515625 -24.875 L 19.921875 -25.671875 L 21.0625 -12.109375 C 21.351562 -8.648438 20.734375 -5.921875 19.203125 -3.921875 C 17.671875 -1.929688 15.253906 -0.796875 11.953125 -0.515625 C 8.648438 -0.234375 6.078125 -0.945312 4.234375 -2.65625 C 2.398438 -4.375 1.335938 -6.960938 1.046875 -10.421875 L -0.828125 -32.65625 C -1.117188 -36.101562 -0.503906 -38.820312 1.015625 -40.8125 C 2.546875 -42.8125 4.960938 -43.953125 8.265625 -44.234375 C 11.566406 -44.515625 14.140625 -43.796875 15.984375 -42.078125 C 17.828125 -40.367188 18.894531 -37.789062 19.1875 -34.34375 L 19.53125 -30.1875 L 13.171875 -29.65625 L 12.796875 -34.234375 C 12.660156 -35.785156 12.253906 -36.847656 11.578125 -37.421875 C 10.898438 -38.003906 10.03125 -38.25 8.96875 -38.15625 C 7.914062 -38.070312 7.097656 -37.6875 6.515625 -37 C 5.929688 -36.3125 5.707031 -35.191406 5.84375 -33.640625 L 7.78125 -10.5625 C 7.914062 -9.007812 8.320312 -7.957031 9 -7.40625 C 9.6875 -6.851562 10.554688 -6.617188 11.609375 -6.703125 C 12.671875 -6.796875 13.488281 -7.171875 14.0625 -7.828125 C 14.644531 -8.492188 14.867188 -9.601562 14.734375 -11.15625 L 14.078125 -19.03125 L 11.03125 -18.765625 Z M 10.515625 -24.875 "/></g></g></g><g fill="rgb(100%, 8.628845%, 8.628845%)" fill-opacity="1"><g transform="translate(141.580003, 200.627095)"><g><path d="M 8.140625 -10.28125 C 8.210938 -8.726562 8.582031 -7.648438 9.25 -7.046875 C 9.914062 -6.453125 10.78125 -6.179688 11.84375 -6.234375 C 12.90625 -6.285156 13.734375 -6.640625 14.328125 -7.296875 C 14.929688 -7.960938 15.195312 -9.070312 15.125 -10.625 L 13.984375 -33.75 C 13.898438 -35.3125 13.523438 -36.390625 12.859375 -36.984375 C 12.203125 -37.585938 11.34375 -37.863281 10.28125 -37.8125 C 9.21875 -37.757812 8.382812 -37.398438 7.78125 -36.734375 C 7.175781 -36.078125 6.914062 -34.96875 7 -33.40625 Z M 0.296875 -32.65625 C 0.117188 -36.125 0.859375 -38.832031 2.515625 -40.78125 C 4.179688 -42.726562 6.671875 -43.78125 9.984375 -43.9375 C 13.296875 -44.101562 15.867188 -43.300781 17.703125 -41.53125 C 19.546875 -39.757812 20.554688 -37.140625 20.734375 -33.671875 L 21.828125 -11.390625 C 22.003906 -7.929688 21.265625 -5.226562 19.609375 -3.28125 C 17.953125 -1.332031 15.46875 -0.273438 12.15625 -0.109375 C 8.84375 0.046875 6.265625 -0.757812 4.421875 -2.53125 C 2.578125 -4.300781 1.566406 -6.914062 1.390625 -10.375 Z M 0.296875 -32.65625 "/></g></g></g><g fill="rgb(100%, 8.628845%, 8.628845%)" fill-opacity="1"><g transform="translate(165.332231, 199.440017)"><g><path d="M 16.546875 -0.234375 C 16.460938 -0.515625 16.378906 -0.78125 16.296875 -1.03125 C 16.210938 -1.28125 16.132812 -1.585938 16.0625 -1.953125 C 16 -2.316406 15.953125 -2.785156 15.921875 -3.359375 C 15.890625 -3.929688 15.867188 -4.644531 15.859375 -5.5 L 15.765625 -12.25 C 15.734375 -14.25 15.363281 -15.648438 14.65625 -16.453125 C 13.957031 -17.265625 12.832031 -17.660156 11.28125 -17.640625 L 8.9375 -17.59375 L 9.1875 -0.125 L 2.453125 -0.03125 L 1.828125 -42.9375 L 12 -43.09375 C 15.519531 -43.144531 18.078125 -42.363281 19.671875 -40.75 C 21.273438 -39.132812 22.101562 -36.671875 22.15625 -33.359375 L 22.203125 -30 C 22.265625 -25.582031 20.832031 -22.660156 17.90625 -21.234375 C 19.632812 -20.554688 20.828125 -19.4375 21.484375 -17.875 C 22.140625 -16.3125 22.484375 -14.40625 22.515625 -12.15625 L 22.609375 -5.53125 C 22.628906 -4.46875 22.679688 -3.535156 22.765625 -2.734375 C 22.859375 -1.941406 23.078125 -1.144531 23.421875 -0.34375 Z M 8.65625 -36.90625 L 8.84375 -23.71875 L 11.484375 -23.765625 C 12.753906 -23.785156 13.738281 -24.128906 14.4375 -24.796875 C 15.144531 -25.460938 15.488281 -26.65625 15.46875 -28.375 L 15.40625 -32.59375 C 15.382812 -34.144531 15.09375 -35.265625 14.53125 -35.953125 C 13.96875 -36.640625 13.09375 -36.972656 11.90625 -36.953125 Z M 8.65625 -36.90625 "/></g></g></g><g fill="rgb(100%, 8.628845%, 8.628845%)" fill-opacity="1"><g transform="translate(189.510685, 199.112372)"><g><path d="M 9.625 -23.671875 L 18.34375 -23.515625 L 18.234375 -17.390625 L 9.515625 -17.546875 L 9.1875 0.171875 L 2.453125 0.046875 L 3.234375 -42.859375 L 21.078125 -42.53125 L 20.96875 -36.40625 L 9.859375 -36.609375 Z M 9.625 -23.671875 "/></g></g></g><g fill="rgb(100%, 8.628845%, 8.628845%)" fill-opacity="1"><g transform="translate(210.170718, 199.485352)"><g><path d="M 4.53125 -42.734375 L 11.25 -42.421875 L 9.46875 -5.6875 L 20.5625 -5.140625 L 20.265625 0.984375 L 2.453125 0.125 Z M 4.53125 -42.734375 "/></g></g></g><g fill="rgb(100%, 8.628845%, 8.628845%)" fill-opacity="1"><g transform="translate(230.717191, 200.5298)"><g><path d="M 5.53125 -42.625 L 12.234375 -42.140625 L 9.15625 0.65625 L 2.453125 0.171875 Z M 5.53125 -42.625 "/></g></g></g><g fill="rgb(100%, 8.628845%, 8.628845%)" fill-opacity="1"><g transform="translate(241.961533, 201.230388)"><g><path d="M 29.0625 -40.234375 L 19.984375 -20.1875 L 25.3125 2.515625 L 18.234375 1.8125 L 14.421875 -15.640625 L 7.203125 0.71875 L 0.921875 0.09375 L 10.578125 -21.125 L 5.640625 -42.5625 L 12.578125 -41.875 L 16.09375 -25.640625 L 22.84375 -40.859375 Z M 29.0625 -40.234375 "/></g></g></g></svg>